<?xml version="1.0" standalone="no"?><!DOCTYPE svg PUBLIC "-//W3C//DTD SVG 1.1//EN" "http://www.w3.org/Graphics/SVG/1.1/DTD/svg11.dtd"><svg t="1513046815533" class="icon" style="" viewBox="0 0 1024 1024" version="1.1" xmlns="http://www.w3.org/2000/svg" p-id="1428" xmlns:xlink="http://www.w3.org/1999/xlink" width="200" height="200"><defs><style type="text/css"></style></defs><path d="M0 1024C0 1024 1024 1024 1024 1024 1024 1024 1024 0 1024 0 1024 0 0 1024 0 1024ZM653.880889 928.540444C653.880889 928.540444 431.255704 698.55763 431.255704 698.55763 431.255704 698.55763 488.334222 652.060444 488.334222 652.060444 488.334222 652.060444 617.092741 754.612148 617.092741 754.612148 669.847704 690.896593 787.000889 564.451556 948.603259 463.985778 948.603259 463.985778 962.218667 495.843556 962.218667 495.843556 813.852444 634.235259 692.451556 828.946963 653.880889 928.540444Z" fill="#72B92D" p-id="1429"></path></svg>